<svg xmlns="http://www.w3.org/2000/svg" width="19.257" height="23.316" viewBox="0 0 19.257 23.316">
  <g id="ico04" transform="translate(-44.568)">
    <path id="パス_20" data-name="パス 20" d="M62.347,5.063c.351-.4-.1-2.255,1.073-3.318.508-.461.4-1.646.389-1.736v0h0V0s-2.453.291-3.217.445a20.982,20.982,0,0,0-4.319,1.371,4.8,4.8,0,0,0-.635.361,3.23,3.23,0,0,1,.5-1.029c.048-.07.094-.139.147-.215h-.007L56.28.926c-.087.013-.172.037-.258.053-.066.013-.132.026-.2.041-.16.036-.318.078-.475.126-.081.025-.161.05-.241.078-.12.042-.24.086-.358.135s-.228.1-.341.148c-.074.034-.147.068-.22.1-.15.075-.3.156-.444.24-.059.034-.119.068-.177.1-.151.091-.3.187-.444.287l-.161.112q-.212.15-.415.31l-.179.143q-.18.147-.355.3c-.078.068-.155.137-.231.207l-.128.12a16.348,16.348,0,0,0-2.689,3.322c-.177.287-.322.544-.43.756a13.4,13.4,0,0,1,.17-1.89.928.928,0,0,1,.117-.3l-.02.023c.005-.009.01-.02.015-.028-2.246,2.341-2.461,5.851-2.451,9.952a19.879,19.879,0,0,1-1,3.75q-.236.787-.439,1.583-.15.59-.282,1.184a1.319,1.319,0,0,0,.059,1.056c.133.215.49.524.773.472a.16.16,0,0,1,.071,0,.082.082,0,0,1,.02-.029c.035-.039.035-.2.045-.247a35.533,35.533,0,0,1,2.927-8.887,22.679,22.679,0,0,1,2.743-4.4,15.309,15.309,0,0,1,1.83-1.908c.053-.046.308-.321.37-.31.168.03.159.441.131.547a1.636,1.636,0,0,1-.411.57q-.3.352-.589.716a21.046,21.046,0,0,0-2.973,5.075,21.946,21.946,0,0,0-.918,2.772c-.105.405-.2.813-.287,1.223-.077.363-.382,1.076.023,1.337.232.149.641.058.9.045q.511-.026,1.02-.073c.186-.017.371-.044.557-.066h0q.486-.058.968-.143l.168-.03c.144-.027.289-.047.433-.077A13.386,13.386,0,0,0,55.964,18.2,8.147,8.147,0,0,0,59.527,15.2c.027-.044.043-.071.045-.071h0l0-.007-1.635.029-.911.012c.23-.328,3.16-1.9,3.7-2.487.941-1.029,1.92-4.84,2.207-6.027.054-.215.085-.343.088-.35l-.006,0,0-.01-1.552,1-.992.633A8.134,8.134,0,0,1,62.347,5.063Z" transform="translate(0 0)" fill="#fff"/>
  </g>
</svg>
