<svg xmlns="http://www.w3.org/2000/svg" width="22.055" height="22.36" viewBox="0 0 22.055 22.36">
  <g id="ico02" transform="translate(0)">
    <path id="パス_17" data-name="パス 17" d="M21.873,19.5a13.643,13.643,0,0,0-2.954-5.072,7.151,7.151,0,0,0-2.556-1.714,8.627,8.627,0,0,0-5.749.186c-.206.069-.414.142-.624.223l1.658-1.681.472.065c.483.067,4.789.577,7.372-2.042s2.081-6.983,2.015-7.473L21.338.729,20.093.556C19.611.49,15.3-.02,12.721,2.6s-2.081,6.983-2.015,7.473l.065.481-.874.885-.789.791a9.42,9.42,0,0,0,.408-6.457A7.267,7.267,0,0,0,7.825,3.179a13.356,13.356,0,0,0-5-2.995L2.222,0,1.885.538C1.766.729-1.029,5.266.412,9.2A7.265,7.265,0,0,0,2.1,11.791a12.966,12.966,0,0,0,4.311,2.744c.114.046.219.088.308.121L2.809,18.623a.635.635,0,0,0,0,.889.614.614,0,0,0,.877,0l2.753-2.791L7.6,15.546a13.437,13.437,0,0,0,2.823,4.681h0a7.154,7.154,0,0,0,2.556,1.714c3.88,1.461,8.356-1.372,8.544-1.494l.53-.341ZM7.942,10.48c-.015.055-.032.109-.047.163-.071.239-.146.467-.224.679a18.533,18.533,0,0,1-3.63-8.814c.1.052.205.107.311.164l.014.008a10.435,10.435,0,0,1,1.95,1.36l.078.072c.089.082.178.166.263.252a5.6,5.6,0,0,1,1.31,1.99,6.861,6.861,0,0,1-.025,4.126Zm-.819,2.16c-.055.113-.107.221-.156.315a11.312,11.312,0,0,1-3.7-2.349,5.608,5.608,0,0,1-1.31-1.99c-.813-2.217.16-4.848.816-6.227A19.8,19.8,0,0,0,7.123,12.641Zm4.272,1.76c.179-.057.364-.11.553-.159l.131-.032c.229-.056.464-.1.7-.143l.176-.027c.167-.023.336-.041.505-.053.073-.005.146-.009.218-.012a5.344,5.344,0,0,1,2.107.308,5.519,5.519,0,0,1,1.963,1.328A9.867,9.867,0,0,1,19.3,17.741l.014.027c.049.089.1.177.142.264q.1.192.193.392a18.33,18.33,0,0,1-7.776-3.065q-.526-.366-1.028-.77c.086-.032.174-.064.264-.095S11.3,14.43,11.395,14.4Zm8.042,5.267c-1.414.654-3.827,1.476-5.881.7a5.521,5.521,0,0,1-1.963-1.328h0a11.576,11.576,0,0,1-2.317-3.748c.086-.046.183-.1.286-.146a19.593,19.593,0,0,0,7.334,3.96A19.777,19.777,0,0,0,19.437,19.668ZM13.89,3.783c2.078-2.106,5.98-1.566,5.98-1.566s.532,3.954-1.546,6.061c-1.437,1.456-3.742,1.647-5.03,1.626-.041,0-.084,0-.125-.007l3.8-3.857a.635.635,0,0,0,0-.889.614.614,0,0,0-.877,0L13.836,7.444,12.288,9.007C12.254,7.731,12.407,5.287,13.89,3.783Z" transform="translate(0)" fill="#fff"/>
  </g>
</svg>
