<svg xmlns="http://www.w3.org/2000/svg" width="20.932" height="25.525" viewBox="0 0 20.932 25.525">
  <g id="ico01" transform="translate(-46.066 0)">
    <path id="パス_2" data-name="パス 2" d="M67.7,511.777c0,.007.006,0,0,0Z" transform="translate(-20.555 -486.263)" fill="#fff"/>
    <path id="パス_3" data-name="パス 3" d="M66.856.088c-.319-.213-1.12.022-1.489.074-.281.04-.56.09-.84.135L64.5.3c-.287.046-.574.086-.86.138-1.41.252-2.811.563-4.192.944-.881.243-1.769.516-2.649.825l-.1.037q-.487.173-.97.363c-.209.083-.417.168-.626.257-.165.07-.328.144-.492.218s-.334.155-.5.236q-.312.151-.617.312c-.123.065-.244.132-.366.2q-.364.2-.716.419c-.107.066-.212.134-.317.2q-.359.233-.7.484c-.109.08-.217.161-.324.244s-.227.164-.335.252A10.207,10.207,0,0,0,49.2,6.975a10.321,10.321,0,0,0-1.6,2.97l0,.006q-.108.3-.2.616l-.012.041q-.088.3-.162.6l-.01.04q-.075.307-.137.617h0a19.5,19.5,0,0,0-.307,4.833c.055,1.01.216,1.995.352,2.994a2.516,2.516,0,0,1-.169,1.119q-.259.863-.482,1.736-.165.647-.309,1.3A1.446,1.446,0,0,0,46.219,25c.146.236.537.574.848.518a.167.167,0,0,1,.078,0,.089.089,0,0,1,.022-.032c.038-.042.039-.215.049-.271a38.975,38.975,0,0,1,3.21-9.748,24.883,24.883,0,0,1,3.009-4.824,16.773,16.773,0,0,1,2.008-2.093c.058-.051.338-.352.406-.34.184.033.175.483.143.6a1.8,1.8,0,0,1-.451.625q-.331.386-.646.785a23.1,23.1,0,0,0-3.262,5.567,24.067,24.067,0,0,0-1.007,3.041c-.116.444-.219.892-.315,1.341-.085.4-.419,1.181.025,1.467.254.164.7.064.991.049.374-.019.747-.045,1.119-.08.2-.019.408-.048.612-.073h0q.535-.064,1.065-.157l.181-.033c.159-.029.318-.051.476-.085a13.957,13.957,0,0,0,4.974-2.047,11.187,11.187,0,0,0,3.751-4.235A18.86,18.86,0,0,0,65.1,9.606c.275-1.665.409-3.346.607-5.021a10.829,10.829,0,0,1,.634-2.72c.129-.328.276-.648.431-.964C66.893.658,67.163.293,66.856.088Z" transform="translate(0 0)" fill="#fff"/>
  </g>
</svg>
